<svg width="70" height="83" viewBox="0 0 70 83" fill="none" xmlns="http://www.w3.org/2000/svg">
<path fill-rule="evenodd" clip-rule="evenodd" d="M61.3191 61.4222L65.644 71.5191C65.7119 71.6772 65.7351 71.8509 65.7112 72.0214C65.6874 72.1918 65.6172 72.3524 65.5085 72.4858C65.3998 72.6192 65.2566 72.7202 65.0945 72.778C64.9324 72.8357 64.7575 72.8479 64.5889 72.8133L55.1753 70.8875L50.116 79.0323C50.0247 79.179 49.895 79.2977 49.7409 79.3756C49.5868 79.4535 49.4142 79.4876 49.2421 79.4742C49.0699 79.4607 48.9047 79.4002 48.7646 79.2993C48.6245 79.1984 48.5148 79.0609 48.4474 78.9019L43.4904 67.1727L43.8743 66.1753C46.1675 65.5101 48.3801 64.5935 50.472 63.4423L54.6983 65.3144C55.255 65.561 55.8734 65.6333 56.472 65.5218C57.0706 65.4103 57.6214 65.1202 58.052 64.6896L61.3191 61.4222ZM26.8462 69.5737L20.7889 82.4588C20.7157 82.6143 20.6014 82.7469 20.4583 82.8421C20.3152 82.9373 20.1488 82.9916 19.977 82.9991C19.8053 83.0066 19.6348 82.967 19.484 82.8845C19.3331 82.8021 19.2077 82.6799 19.1213 82.5313L14.2919 74.2203L4.82942 75.8779C4.65985 75.9075 4.48541 75.8902 4.32501 75.8277C4.16462 75.7652 4.0244 75.66 3.91956 75.5234C3.81473 75.3869 3.74928 75.2243 3.73033 75.0532C3.71137 74.8821 3.73964 74.7091 3.81205 74.5529L9.32826 62.6665L11.3511 64.6896C11.7817 65.1202 12.3325 65.4103 12.9311 65.5218C13.5297 65.6333 14.1481 65.561 14.7048 65.3144L18.9362 63.4402C21.0305 64.5902 23.2444 65.5075 25.5384 66.1757L26.8462 69.5737ZM41.6134 5.7584C44.6767 6.48624 47.6039 7.69923 50.2841 9.35144L55.9196 6.84588L62.5572 13.4835L60.0611 19.119C61.7151 21.8017 62.9282 24.7323 63.6541 27.7991L69.4031 30.0116V39.4009L63.6541 41.6134C62.9261 44.677 61.7063 47.5987 60.0611 50.2841L62.5572 55.9196L55.9196 62.5572L50.2841 60.0611C47.6081 61.7157 44.677 62.9261 41.6134 63.6541L39.4009 69.4031H30.0116L27.7991 63.6541C24.7261 62.9261 21.8044 61.7063 19.119 60.0611L13.4835 62.5572L6.84589 55.9196L9.35144 50.2841C7.69684 47.6081 6.48647 44.677 5.74898 41.6134L0 39.4009V30.0116L5.74898 27.7991C6.48647 24.7261 7.69684 21.8044 9.35144 19.119L6.84589 13.4835L13.4835 6.84588L19.119 9.35144C21.7992 7.69923 24.7264 6.48624 27.7897 5.7584L30.0116 0H39.4009L41.6134 5.7584ZM34.7015 15.1534C23.9126 15.1534 15.1534 23.9126 15.1534 34.7015C15.1534 45.4905 23.9126 54.2497 34.7015 54.2497C45.4905 54.2497 54.2497 45.4905 54.2497 34.7015C54.2497 23.9126 45.4905 15.1534 34.7015 15.1534ZM35.2881 22.484L38.3053 30.4215C38.3966 30.6626 38.6052 30.8126 38.8593 30.8256L47.3441 31.2427C47.9242 31.2687 48.1587 31.9987 47.709 32.357L41.0879 37.6813C40.8859 37.8377 40.8079 38.0852 40.8729 38.3329L43.1018 46.531C43.258 47.0849 42.6391 47.5346 42.1568 47.2218L35.047 42.5688C34.832 42.4255 34.5711 42.4255 34.3561 42.5688L27.2529 47.2218C26.7706 47.5346 26.1515 47.0849 26.3013 46.531L28.5302 38.3329C28.5952 38.0852 28.5172 37.8377 28.3152 37.6813L21.6941 32.357C21.2444 31.9987 21.4789 31.2687 22.059 31.2427L30.5438 30.8256C30.7979 30.8126 31.0065 30.6626 31.0978 30.4215L34.115 22.484C34.3171 21.9433 35.086 21.9433 35.2881 22.484Z" fill="#E70001"/>
</svg>
