<svg width="79" height="83" viewBox="0 0 79 83" fill="none" xmlns="http://www.w3.org/2000/svg">
<path d="M27.8992 17.5075C28.0017 17.6612 28.073 17.8336 28.1089 18.0149C28.1449 18.1961 28.1447 18.3826 28.1085 18.5638C28.0723 18.745 28.0008 18.9173 27.898 19.0709C27.7953 19.2244 27.6632 19.3562 27.5095 19.4587L23.2892 22.2723C22.9788 22.4793 22.5988 22.5546 22.2329 22.4815C21.867 22.4085 21.5451 22.193 21.338 21.8826C21.1309 21.5722 21.0556 21.1922 21.1287 20.8263C21.2018 20.4604 21.4172 20.1385 21.7277 19.9314L25.948 17.1178C26.1017 17.0153 26.2741 16.944 26.4553 16.9081C26.6366 16.8722 26.8231 16.8723 27.0043 16.9085C27.1855 16.9447 27.3578 17.0162 27.5113 17.119C27.6649 17.2218 27.7967 17.3538 27.8992 17.5075ZM18.2881 12.6612H23.9152C24.2883 12.6612 24.6461 12.513 24.9099 12.2491C25.1738 11.9853 25.322 11.6275 25.322 11.2544C25.322 10.8813 25.1738 10.5235 24.9099 10.2597C24.6461 9.99583 24.2883 9.84762 23.9152 9.84762H18.2881C17.915 9.84762 17.5572 9.99583 17.2934 10.2597C17.0295 10.5235 16.8813 10.8813 16.8813 11.2544C16.8813 11.6275 17.0295 11.9853 17.2934 12.2491C17.5572 12.513 17.915 12.6612 18.2881 12.6612ZM24.5412 5.39095C24.8516 5.59802 25.2316 5.6733 25.5975 5.60022C25.9634 5.52714 26.2853 5.31169 26.4924 5.00127C26.6995 4.69085 26.7748 4.31089 26.7017 3.94497C26.6286 3.57905 26.4132 3.25714 26.1027 3.05007L21.8824 0.236519C21.572 0.0294484 21.192 -0.0458274 20.8261 0.0272513C20.4602 0.10033 20.1383 0.315777 19.9312 0.626196C19.7241 0.936616 19.6489 1.31658 19.7219 1.6825C19.795 2.04842 20.0105 2.37032 20.3209 2.5774L24.5412 5.39095ZM33.9047 19.6951L39.3897 16.8112L44.8748 19.6951L43.8267 13.5868L48.2651 9.2624L42.133 8.3705L39.3897 2.81373L36.6465 8.3705L30.513 9.2624L34.9514 13.5868L33.9047 19.6951ZM53.4575 11.2544C53.4575 11.6275 53.6057 11.9853 53.8695 12.2491C54.1334 12.513 54.4912 12.6612 54.8643 12.6612H60.4914C60.8645 12.6612 61.2223 12.513 61.4861 12.2491C61.75 11.9853 61.8982 11.6275 61.8982 11.2544C61.8982 10.8813 61.75 10.5235 61.4861 10.2597C61.2223 9.99583 60.8645 9.84762 60.4914 9.84762H54.8643C54.4912 9.84762 54.1334 9.99583 53.8695 10.2597C53.6057 10.5235 53.4575 10.8813 53.4575 11.2544ZM55.4903 22.2723C55.8007 22.4793 56.1807 22.5546 56.5466 22.4815C56.9125 22.4085 57.2344 22.193 57.4415 21.8826C57.6486 21.5722 57.7239 21.1922 57.6508 20.8263C57.5777 20.4604 57.3622 20.1385 57.0518 19.9314L52.8315 17.1178C52.6778 17.0153 52.5054 16.9441 52.3242 16.9081C52.1429 16.8722 51.9564 16.8724 51.7752 16.9086C51.594 16.9448 51.4217 17.0163 51.2682 17.119C51.1146 17.2218 50.9828 17.3538 50.8803 17.5075C50.7778 17.6612 50.7065 17.8336 50.6706 18.0149C50.6347 18.1961 50.6348 18.3826 50.671 18.5638C50.7072 18.745 50.7787 18.9173 50.8815 19.0708C50.9843 19.2244 51.1163 19.3562 51.27 19.4587L55.4903 22.2723ZM52.0521 5.62729C52.3295 5.62707 52.6007 5.54485 52.8315 5.39095L57.0518 2.5774C57.3622 2.37032 57.5777 2.04842 57.6508 1.6825C57.7239 1.31658 57.6486 0.936616 57.4415 0.626196C57.2344 0.315777 56.9125 0.10033 56.5466 0.0272513C56.1807 -0.0458274 55.8007 0.0294485 55.4903 0.236519L51.27 3.05007C51.0187 3.21765 50.8279 3.46167 50.7261 3.74604C50.6242 4.0304 50.6165 4.34001 50.7043 4.62906C50.792 4.9181 50.9704 5.17124 51.2132 5.35101C51.4559 5.53079 51.7501 5.62766 52.0521 5.62729ZM70.3388 66.1187H59.0846C57.4819 66.119 55.9125 66.5756 54.5598 67.435C53.207 68.2945 52.127 69.5213 51.4458 70.9721C53.6532 72.5033 55.24 74.7737 55.9194 77.3729H78.7795V74.5593C78.7776 72.3213 77.8877 70.1755 76.3052 68.5929C74.7227 67.0104 72.5769 66.1205 70.3388 66.1187ZM45.0168 71.7458H33.7626C31.524 71.7458 29.3771 72.6351 27.7942 74.218C26.2113 75.8009 25.322 77.9478 25.322 80.1864V83H53.4575V80.1864C53.4575 77.9478 52.5682 75.8009 50.9853 74.218C49.4024 72.6351 47.2555 71.7458 45.0168 71.7458ZM57.6778 57.678C57.6778 59.0692 58.0904 60.4291 58.8633 61.5858C59.6362 62.7426 60.7347 63.6441 62.02 64.1765C63.3052 64.7089 64.7195 64.8482 66.084 64.5768C67.4484 64.3053 68.7017 63.6354 69.6854 62.6517C70.6691 61.668 71.3391 60.4147 71.6105 59.0503C71.8819 57.6858 71.7426 56.2715 71.2102 54.9863C70.6778 53.701 69.7763 52.6025 68.6195 51.8296C67.4628 51.0567 66.1029 50.6441 64.7117 50.6441C62.8462 50.6441 61.0571 51.3852 59.738 52.7043C58.4189 54.0234 57.6778 55.8125 57.6778 57.678ZM39.3897 56.2712C37.9986 56.2712 36.6386 56.6838 35.4819 57.4567C34.3252 58.2296 33.4237 59.3281 32.8913 60.6134C32.3589 61.8987 32.2196 63.3129 32.491 64.6774C32.7624 66.0418 33.4323 67.2951 34.416 68.2788C35.3997 69.2625 36.6531 69.9324 38.0175 70.2039C39.3819 70.4753 40.7962 70.336 42.0815 69.8036C43.3668 69.2712 44.4653 68.3697 45.2382 67.2129C46.0111 66.0562 46.4236 64.6963 46.4236 63.3051C46.4236 61.4396 45.6826 59.6505 44.3634 58.3314C43.0443 57.0123 41.2552 56.2712 39.3897 56.2712ZM39.3897 23.9154C37.9986 23.9154 36.6386 24.3279 35.4819 25.1008C34.3252 25.8737 33.4237 26.9722 32.8913 28.2575C32.3589 29.5428 32.2196 30.9571 32.491 32.3215C32.7624 33.6859 33.4323 34.9393 34.416 35.923C35.3997 36.9067 36.6531 37.5766 38.0175 37.848C39.3819 38.1194 40.7962 37.9801 42.0815 37.4477C43.3668 36.9153 44.4653 36.0138 45.2382 34.8571C46.0111 33.7004 46.4236 32.3404 46.4236 30.9493C46.4236 29.0838 45.6826 27.2947 44.3634 25.9756C43.0443 24.6564 41.2552 23.9154 39.3897 23.9154ZM14.0678 64.7119C15.4589 64.7119 16.8189 64.2994 17.9756 63.5265C19.1323 62.7536 20.0338 61.655 20.5662 60.3698C21.0986 59.0845 21.2379 57.6702 20.9665 56.3058C20.6951 54.9413 20.0252 53.688 19.0415 52.7043C18.0578 51.7206 16.8044 51.0507 15.44 50.7793C14.0756 50.5079 12.6613 50.6472 11.376 51.1796C10.0907 51.7119 8.9922 52.6135 8.21931 53.7702C7.44641 54.9269 7.03388 56.2868 7.03388 57.678C7.03388 58.6017 7.21582 59.5164 7.5693 60.3698C7.92279 61.2232 8.4409 61.9986 9.09406 62.6517C9.74722 63.3049 10.5226 63.823 11.376 64.1765C12.2294 64.53 13.1441 64.7119 14.0678 64.7119ZM27.3337 70.9721C26.6525 69.5213 25.5725 68.2945 24.2197 67.435C22.867 66.5756 21.2975 66.119 19.6949 66.1187H8.44066C6.20263 66.1205 4.0568 67.0104 2.47427 68.5929C0.891742 70.1755 0.0018627 72.3213 0 74.5593V77.3729H22.8601C23.5395 74.7737 25.1263 72.5033 27.3337 70.9721ZM28.1355 49.2374V67.1541C28.8028 67.9082 29.3659 68.7486 29.8096 69.6525L29.8349 69.6483C30.3732 69.4449 30.9263 69.2831 31.4893 69.1644C30.3998 67.6997 29.7388 65.9609 29.5802 64.1423C29.4217 62.3238 29.7717 60.4969 30.5913 58.8657C31.4109 57.2346 32.6678 55.8633 34.2216 54.9051C35.7754 53.947 37.565 53.4395 39.3904 53.4395C41.2159 53.4395 43.0055 53.947 44.5593 54.9051C46.1131 55.8633 47.37 57.2346 48.1896 58.8657C49.0092 60.4969 49.3592 62.3238 49.2007 64.1423C49.0421 65.9609 48.3811 67.6997 47.2916 69.1644C47.8532 69.2829 48.4048 69.4442 48.9418 69.6469L48.9713 69.6525C49.4146 68.7486 49.9772 67.9083 50.644 67.1541V49.2374L64.2194 33.1931C64.7401 32.5751 65.0072 31.7826 64.9667 30.9754C64.9263 30.1683 64.5813 29.4065 64.0013 28.8437C63.4214 28.2808 62.6496 27.9588 61.8416 27.9426C61.0336 27.9263 60.2494 28.217 59.6473 28.7561L47.8304 39.3899H30.9491L19.1322 28.7547C18.5302 28.2136 17.7453 27.9212 16.9361 27.9367C16.1268 27.9522 15.3536 28.2744 14.7729 28.8382C14.1921 29.402 13.8471 30.1652 13.8076 30.9737C13.7681 31.7821 14.0371 32.5754 14.5601 33.1931L28.1355 49.2374Z" fill="#E70001"/>
</svg>
